<svg xmlns="http://www.w3.org/2000/svg" xmlns:xlink="http://www.w3.org/1999/xlink" viewBox="0 0 66 50" fill="#fff" fill-rule="evenodd" stroke="#000" stroke-linecap="round" stroke-linejoin="round"><use xlink:href="#A" x=".5" y=".5"/><symbol id="A" overflow="visible"><path d="M10.98 5.266S19.007 0 32 0s21.02 5.266 21.02 5.266l-5.266 27.912h-31.53zm0 34.076s8.177 3.746 21.02 3.746 21.02-3.746 21.02-3.746v5.95s-8.326 3.5-21.02 3.5-21.02-3.5-21.02-3.5zm-.48-3.852v-9.932c0-1.605-1.306-2.9-2.9-2.9H0v5.266h4.902v7.6H10.5zm43 0v-9.932c0-1.605 1.306-2.9 2.9-2.9H64v5.266h-4.902v7.6H53.5z" stroke="none" fill="#1673e6" fill-rule="nonzero"/></symbol></svg>